<!-- Generator: Adobe Illustrator 19.2.0, SVG Export Plug-In  -->
<svg version="1.1"
	 xmlns="http://www.w3.org/2000/svg" xmlns:xlink="http://www.w3.org/1999/xlink" xmlns:a="http://ns.adobe.com/AdobeSVGViewerExtensions/3.0/"
	 x="0px" y="0px" width="154px" height="194.8px" viewBox="0 0 154 194.8" style="enable-background:new 0 0 154 194.8;"
	 xml:space="preserve">
<style type="text/css">
	.st0{fill:#FFFFFF;}
</style>
<defs>
</defs>
<path d="M122.5,187.4c0.4,0,0.6,0.1,0.9,0.1c4.2,0.2,8.4,0.4,12.7,0.6c3.9,0.3,7.8,0.6,11.7,1.1c1.6,0.2,3.3,0.6,4.9,0.9
	c0.3,0.1,0.7,0.2,1,0.4c0.4,0.2,0.4,0.5,0,0.7c-0.3,0.2-0.7,0.3-1,0.4c-1.9,0.6-3.9,0.8-5.9,1c-10.3,1.1-20.7,1.5-31.1,1.8
	c-2.5,0.1-5,0.2-7.5,0.3c-4.5,0.1-9,0.1-13.5,0.1c-9.2,0-18.4,0-27.6-0.1c-7-0.1-14-0.5-20.9-0.8c-4.3-0.2-8.7-0.4-13-0.8
	c-3.2-0.3-6.3-0.7-9.5-1.1c-0.7-0.1-1.4-0.3-2.1-0.5c-0.4-0.1-0.8-0.3-0.8-0.7s0.5-0.6,0.9-0.7c1.8-0.6,3.7-0.9,5.6-1
	c3.9-0.4,7.9-0.7,11.8-1c0.8-0.1,0.9-0.3,0.5-1c-0.9-1.8-1.5-3.7-2-5.7c-0.3-1-0.5-2-0.7-2.9c-0.2-0.7-0.6-1.1-1.3-1.2
	c-2.6-0.4-5-1.2-7.5-2c-2.3-0.8-4.5-1.7-6.7-2.8c-5-2.5-9.5-5.8-13.3-10c-2.3-2.6-4.3-5.4-5.8-8.6c-0.8-1.8-1.4-3.7-1.9-5.6
	c-0.5-1.7-0.5-3.5-0.3-5.2c0.2-2.1,1-4.1,2.9-5.3c1.3-0.8,2.7-1,4.2-0.6c0.6,0.1,1.1,0.3,1.8,0.5c0.1-0.3,0.2-0.6,0.2-0.8
	c0-1.2,0-2.3,0-3.5c0-0.4-0.1-0.7-0.4-1c-1.6-1.8-1.5-3.8-0.5-5.9c0.1-0.3,0.2-0.5,0.4-0.7c0.8-0.8,0.9-1.8,1-2.8
	c0.1-1.1,0.3-2.3,0.5-3.4c0.1-0.4,0.2-0.7,0.4-1c0.4-0.7,0.9-1,1.7-0.9s0.9,0,0.9-0.8c0-1,0-2.1,0-3.1c0-0.3,0-0.5,0-0.8
	c0.1-1.1,1-1.6,2-1.1c0.5,0.2,1.1,0.5,1.6,0.8c0.6,0.3,0.8,0.1,0.8-0.5c0-0.8,0-1.7,0-2.5c0-0.4,0.1-0.8,0.4-1.1
	c0.5-0.5,1-0.6,1.6-0.2c1.2,0.8,2.5,1.7,3.7,2.5c3.5,2.4,6.9,4.8,10.4,7.1c0.6,0.4,0.9,0.3,1-0.4c0.3-4.3,0.9-8.5,1.6-12.7
	c0.4-2.6,0.8-5.2,1.3-7.8c0.2-1.2,0.5-2.4,0.8-3.6c0.1-0.3,0.2-0.6,0.2-0.9c0.1-0.6-0.1-0.8-0.6-1c-2.3-0.7-4.6-1.4-6.9-2.3
	c-3.1-1.2-6.2-2.6-8.8-4.8c-1.1-0.9-2.1-1.9-2.8-3.2c-0.5-0.9-0.8-1.8-0.8-2.8c0-0.7,0.1-1.4,0-2c-0.2-2.5,0.9-4.4,2.5-6
	c1.6-1.5,3.4-2.7,5.3-3.7c2.4-1.3,4.9-2.3,7.5-3.1c2.1-0.7,4.2-1.3,6.3-1.8c2.3-0.6,4.6-1,6.8-1.5c0.6-0.1,0.7-0.3,0.6-0.9
	c-0.3-1.7-0.7-3.4-1-5.1c-0.2-1-0.4-2-0.6-3c-0.4-2.2-0.8-4.4-1.3-6.6c-0.4-2.2-0.9-4.4-1.3-6.6s-0.9-4.3-1.3-6.5
	c-0.5-2.3-0.9-4.6-1.4-7c-0.2-1-0.4-2.1-0.6-3.1c-0.5-2.6-1-5.3-1.6-7.9c-0.4-1.8,0.1-3.2,1.3-4.4c1.2-1.2,2.6-2,4.1-2.7
	c2.5-1.2,5.2-2.1,7.9-2.9c4.7-1.3,9.5-2.2,14.3-2.7c1.8-0.2,3.6-0.3,5.5-0.5c5.5-0.7,11.1-0.4,16.6-0.3c2.2,0,4.4,0.4,6.6,0.6
	c2.2,0.3,4.3,0.5,6.4,0.9c2.3,0.4,4.5,0.9,6.8,1.4c1.6,0.4,3.2,0.8,4.7,1.3c2.9,0.9,5.7,2,8.2,3.7c0.9,0.6,1.8,1.4,2.4,2.4
	c0.4,0.7,0.6,1.5,0.5,2.3c-0.3,1.6-0.6,3.2-0.9,4.8c-0.3,1.5-0.6,2.9-0.9,4.4c-0.5,2.3-0.9,4.5-1.4,6.8c-0.2,1.1-0.4,2.1-0.7,3.2
	c-0.6,3.1-1.2,6.2-1.8,9.4c-0.5,2.7-1.1,5.4-1.6,8.1c-0.6,3.1-1.3,6.2-1.9,9.3c0,0.1,0,0.1,0,0.2c-0.2,1.2,0,1.2,1,1.4
	c2,0.4,4,0.8,5.9,1.3c1.6,0.4,3.2,0.8,4.8,1.3c1.2,0.4,2.5,0.8,3.7,1.2c1.6,0.6,3.1,1.2,4.7,2c2.5,1.2,4.9,2.6,6.9,4.7
	c1.4,1.5,2.3,3.2,2.1,5.3c0,0.6,0,1.3,0,1.9c0.1,1.7-0.5,3.1-1.5,4.4c-1.4,1.7-3.1,3-5,4.1c-2.9,1.7-6,2.9-9.1,3.9
	c-1.3,0.4-2.6,0.8-4,1.2c-0.9,0.3-1,0.4-0.7,1.3c0.3,1.5,0.7,3,0.9,4.5c0.5,2.6,0.9,5.3,1.4,7.9c0.2,1.5,0.5,3,0.6,4.4
	c0.3,2.2,0.5,4.3,0.7,6.5c0.3,3.8,0.6,7.6,0.9,11.4c0,0.5,0.2,0.8,0.6,1c1.8,1,3.5,2,5.2,3.1c2.5,1.6,4.9,3.5,6.8,5.9
	c1.2,1.5,2,3.2,2.2,5.1c0.2,2.4-1.1,5.4-3.2,6.3c-1.4,0.7-2.9,0.6-4.3,0.1c-2.3-0.8-4.1-2.4-5.9-4l-0.1-0.1
	c-0.2-0.1-0.5-0.4-0.7-0.4c-0.4,0.1-0.3,0.5-0.3,0.8c-0.1,3-0.2,5.9-0.3,8.9c-0.2,4.8-0.6,9.6-1.2,14.4c-0.5,3.9-1.1,7.8-2.1,11.6
	c-0.6,2.3-1.3,4.6-2.3,6.8C122.5,187,122.5,187.1,122.5,187.4z M37.4,164.2c0,0.4-0.1,0.7,0,1c0.4,3.4,0.8,6.7,1.5,10
	c0.7,3.4,1.5,6.8,2.8,10.1c0.5,1.1,1,2.2,1.9,3.2s1.8,1.3,3.3,0.2c1.1-0.8,1.8-2,2.2-3.3c0.5-1.4,0.9-2.8,1.3-4.2
	c0.5-1.8,0.7-1.9,2.6-1.8c4.3,0.3,8.6,0.8,12.9,0.9c6.5,0.2,13,0.2,19.4,0.2c7.8,0,15.6-0.3,23.4-1.1c1.8-0.2,2.1,0.1,2.6,1.9
	c0.4,1.4,0.7,2.7,1.2,4c0.4,1.2,1.1,2.3,2,3.2c1.5,1.4,2.8,1.1,3.9-0.3c0.9-1.2,1.5-2.5,2-3.9c0.9-2.4,1.6-4.9,2.1-7.5
	c0.6-3.3,1.2-6.7,1.6-10c0.5-4.3,0.9-8.7,1.1-13.1c0.5-11.4,0.3-22.7-0.8-34c-0.4-4.7-0.9-9.4-1.7-14c-0.6-3.6-1.2-7.1-1.8-10.7
	c-0.2-1-0.4-1.9-0.6-2.9c-0.4-1.8-0.9-3.6-1.3-5.4c-0.4-1.6-0.8-3.2-1.3-4.7c-0.6-1.9-1.2-3.9-1.9-5.8c-0.6-1.7-1.1-3.4-1.9-5
	c-1.1-2.5-2.3-5-3.5-7.5c-1.7-3.3-3.7-6.4-6-9.3c-0.2-0.2-0.4-0.4-0.8-0.6c-0.5,1.1-0.9,2.1-1.3,3.1c-0.5,1.4-0.9,2.8-1.3,4.3
	c-0.7,2.5-1.2,5-1.5,7.5c-0.2,1.4-0.7,1.9-2.2,1.7c-1.2-0.2-2.3-0.4-3.5-0.5c-5.3-0.6-10.6-0.8-15.9-0.7c-2,0-4,0.1-6,0.3
	c-2.6,0.2-5.3,0.6-7.9,0.9c-1.3,0.2-1.9-0.3-2.1-1.6c-0.1-1.1-0.3-2.2-0.5-3.3c-0.6-3.5-1.5-6.9-2.9-10.2c-0.2-0.5-0.3-1-0.8-1.4
	c-0.2,0.2-0.4,0.3-0.6,0.5c-1.8,2.3-3.5,4.7-5,7.3c-1.1,1.9-2.1,3.9-3,5.8c-0.7,1.4-1.3,2.9-1.9,4.3c-0.7,1.7-1.3,3.4-1.9,5
	c-0.4,1.2-0.9,2.5-1.2,3.8c-0.5,1.5-0.9,3.1-1.3,4.6c-0.5,1.8-1,3.5-1.4,5.3c-0.5,2.1-0.9,4.1-1.3,6.2c-0.5,2.9-1,5.8-1.5,8.7
	c-0.3,1.7-0.5,3.5-0.7,5.2c-0.3,2.9-0.6,5.9-1,8.8c-0.1,0.5,0.2,0.9,0.6,1.2c1.4,1,2.8,1.9,4.3,2.9c0.6,0.4,0.7,0.4,1.4,0
	c3.5-2.4,7.1-4.8,10.6-7.3c0.9-0.6,1.7-1.2,2.5-1.8c0.9-0.8,1.7-1.6,2.5-2.5c0.8-0.8,1.7-1.4,2.1-2.6c0.3-0.8,1.1-0.7,1.6-0.1
	c0.2,0.2,0.3,0.4,0.5,0.6c0.2-0.1,0.3-0.2,0.4-0.3c0.7-0.5,1.5-1,2.2-1.5c0.4-0.3,0.8-0.3,1.3-0.1c0.5,0.3,0.8,0.8,0.7,1.3
	c-0.2,1.1,0.2,1.8,1.2,2.4c0.4,0.2,0.7,0.3,1.2,0.1c1.2-0.6,2.1,0,2.1,1.3c0,0.5,0,1.1,0,1.6c0,0.7,0.2,1,0.9,1.1
	c1.3,0.2,2.6,0,3.7-0.8c1.3-1,2.1-2.3,2.1-3.9c0-1,0.6-1.6,1.4-1.6s1.3,0.6,1.5,1.5c0.1,0.4,0.1,0.8,0.2,1.2c0.6,2,1.9,3.2,3.9,3.5
	s3.7-0.4,4.9-2.2c0.3-0.5,0.5-1.1,0.8-1.7c0.4-0.7,1.1-1,1.7-0.7c0.8,0.3,1.1,1.1,0.9,1.9c-0.2,0.6-0.5,1.3-0.8,1.9
	c-1.1,1.8-2.7,3.1-4.7,3.5c-3,0.6-5.6,0-7.7-2.3c-0.5-0.6-0.6-0.6-1.2,0c-1.1,1.2-2.3,1.9-3.8,2.3c-0.8,0.2-0.9,0.3-0.7,1.2
	c0.1,0.6,0.3,1.3,0.4,1.9c0.2,2.4,0.4,4.8,0.5,7.2c0.1,4.3,0.1,8.6,0,12.8s-0.3,8.4-0.9,12.6c-0.2,1.4-0.9,2.3-2.1,2.9
	c-0.2,0.1-0.3,0.2-0.5,0.3c0.2,0.3,0.4,0.6,0.5,0.8c0.2,0.4,0.1,0.8-0.2,1.1c-0.3,0.3-0.7,0.4-1.1,0.2c-0.3-0.2-0.7-0.5-0.9-0.7
	c-0.4-0.6-0.5-0.6-1.3-0.4c-2.1,0.6-4.2,1.3-6.3,1.9c-1.9,0.5-3.8,0.9-5.8,1.3c-2.4,0.6-4.9,1-7.4,1.1c-1,0-1.7,0.3-2.3,1.2
	c-0.9,1.3-2.3,1.9-3.8,2.1c-2.4,0.4-4.7,0-6.5-1.8C37.8,164.4,37.7,164.2,37.4,164.2z M36.6,143.2L36.6,143.2c0-5.1,0-10.3,0-15.4
	c0-0.3,0-0.6,0-0.9c0-0.6-0.2-0.8-0.7-1c-0.3-0.1-0.6-0.1-0.8-0.2c-2-0.4-4-0.9-5.9-1.3c-2-0.4-4-0.9-5.9-1.4
	c-2.1-0.5-4.2-1-6.3-1.4c-1.2-0.3-2.4-0.6-3.5-0.8c-0.6-0.1-0.9,0-1,0.7c-0.1,0.4-0.1,0.7-0.1,1.1c-0.7,7.6-0.7,15.3-0.3,23
	c0.1,2.7,0.2,5.5,0.7,8.2c0.1,0.7,0.5,1.2,1.1,1.4c1.6,0.6,3.2,1.2,4.8,1.7s3.1,0.9,4.7,1.3c2.9,0.7,5.8,1.3,8.7,1.9
	c1.2,0.2,2.4,0.3,3.6,0.4c0.9,0.1,1.1-0.2,1.1-1.1C36.6,153.9,36.6,148.5,36.6,143.2z M42.8,15.5c0,0,0,0.2,0,0.4
	c0.2,0.8,0.3,1.6,0.5,2.4c0.2,1.2,0.5,2.5,0.7,3.7c0.4,2.2,0.9,4.4,1.4,6.6c0.4,2.2,0.8,4.4,1.3,6.6c0.6,3.1,1.3,6.2,1.9,9.3
	c0.6,3.1,1.2,6.2,1.8,9.4c0.2,0.9,0.3,1.7,0.5,2.6c0.1,0.3,0.1,0.7,0.5,0.7c0.2,0,0.5-0.2,0.7-0.4c0.3-0.4,0.6-0.9,0.9-1.3
	c1.3-1.7,2.6-3.4,4-5c0.8-0.9,1.7-0.9,2.4,0.1c0.6,0.8,1.1,1.7,1.5,2.6c0.4,0.7,0.7,1.5,1,2.3c0.1,0.3,0.3,0.6,0.7,0.5
	c0.7-0.1,1.5-0.1,2.2-0.2c0.4,0,0.5-0.3,0.5-0.7c0-0.2,0-0.3-0.1-0.5c-0.3-1.8-0.6-3.5-0.9-5.3c-0.4-2.7-0.9-5.4-1.3-8.1
	c-0.2-1.3-0.4-2.5-0.6-3.7c-0.5-2.7-0.9-5.3-1.4-8c-0.4-2.6-0.8-5.2-1.3-7.8c-0.5-3.1-1-6.1-1.5-9.2c-0.3-1.6-0.6-3.3-0.9-4.9
	C57.2,6.9,57,6.9,56.4,7c-0.9,0.3-1.8,0.5-2.7,0.8c-2.4,0.7-4.8,1.6-7,2.8c-1.2,0.7-2.4,1.4-3.2,2.6C43.1,13.9,42.7,14.5,42.8,15.5z
	 M49.2,143.2L49.2,143.2c0,5.1,0,10.2,0,15.3c0,0.4,0,0.7,0,1.1c0,0.5,0.2,0.7,0.7,0.7c0.2,0,0.3,0,0.5,0c3.2-0.2,6.3-0.9,9.4-1.6
	c1.7-0.4,3.4-0.8,5.1-1.3c1.9-0.6,3.9-1.2,5.8-1.8c0.6-0.2,1.1-0.5,1.6-0.7c0.3-0.2,0.5-0.4,0.6-0.8c0.1-0.7,0.3-1.3,0.3-2
	c0.2-2.8,0.5-5.7,0.5-8.5c0.1-4.3,0.1-8.7,0.1-13c-0.1-3-0.3-6-0.6-8.9c-0.1-0.8-0.3-1-1.1-0.8c-0.9,0.2-1.9,0.4-2.8,0.6
	c-1.8,0.4-3.6,0.8-5.3,1.2c-2.7,0.6-5.4,1.3-8.1,1.9c-1.9,0.4-3.9,0.8-5.8,1.3c-0.7,0.2-0.9,0.3-0.9,1.1
	C49.2,132.2,49.2,137.8,49.2,143.2z M71.3,30.3L71.3,30.3c-0.2-7.4-0.4-14.9-0.6-22.3c0-0.7,0-1.4-0.1-2c0-0.6-0.2-0.7-0.7-0.7
	c-0.2,0-0.4,0-0.6,0.1C67.2,5.7,65.1,6,63,6.3c-1,0.2-1,0.2-0.9,1.1c0.4,3,0.8,5.9,1.2,8.9c0.2,1.3,0.3,2.5,0.5,3.8
	c0.3,2.2,0.6,4.3,0.9,6.5c0.2,1.7,0.5,3.4,0.7,5.1c0.4,3.1,0.9,6.2,1.3,9.3c0.4,3.2,0.9,6.4,1.3,9.6c0.2,1.3,0.4,2.6,0.6,3.9
	c0.1,0.7,0.3,0.9,1.1,0.9c0.3,0,0.6,0,0.9,0c1.3,0,1.3,0,1.3-1.3C71.7,46.2,71.5,38.3,71.3,30.3z M5.7,140.1c-0.8,0-1.5,0.2-1.9,0.8
	c-0.3,0.5-0.5,1-0.7,1.5c-0.6,2-0.3,4,0.2,6c0.7,3,2.1,5.8,3.9,8.4c2.5,3.7,5.6,6.8,9.3,9.4c2.9,2.1,6.1,3.9,9.4,5.2
	c1.8,0.7,3.5,1.3,5.3,1.9c1.3,0.4,2.7,0.7,4.1,1c0.4,0.1,0.6,0,0.6-0.5c0-0.2,0-0.4-0.1-0.6c-0.2-0.9-0.3-1.9-0.4-2.8
	c-0.1-0.6-0.4-1-0.9-1.3c-1.5-1-2.9-1.9-4.3-3c-1.6-1.4-3.2-2.9-4.7-4.3c-0.3-0.3-0.7-0.6-1-0.7c-3.2-0.8-6.4-1.6-9.5-2.7
	c-1-0.3-1.9-0.8-2.8-1.2c-1.1-0.5-1.7-1.4-1.9-2.5c-0.2-1.4-0.4-2.8-0.5-4.2c-0.2-2.8-0.3-5.6-0.4-8.4c0-0.6-0.2-1-0.7-1.3
	C7.6,140.4,6.7,140,5.7,140.1z M51.6,187.4c0.5,0,0.9,0.1,1.2,0.1c6.7-0.2,13.4-0.4,20.1-0.5c8.3-0.1,16.6,0,24.8,0
	c2.5,0,5.1,0.1,7.6,0.1c1.3,0,2.6,0.1,4,0.1c0.7,0,0.8-0.2,0.6-0.8c0-0.1-0.1-0.2-0.1-0.2c-0.3-1-0.6-1.9-0.9-2.9
	c-0.2-0.7-0.3-0.8-1-0.7c-1.5,0.1-3,0.2-4.5,0.3c-6.8,0.6-13.7,0.6-20.5,0.7c-4.7,0.1-9.4-0.1-14.1-0.2c-2.9-0.1-5.8-0.2-8.7-0.4
	c-2-0.1-4-0.3-6.1-0.5c-0.7-0.1-0.9,0.1-1,0.8c-0.1,0.4-0.2,0.7-0.3,1.1C52.3,185.2,52,186.2,51.6,187.4z M46.6,145L46.6,145
	c0-2.4,0-4.8,0-7.3c0-0.1,0-0.3,0-0.4c-0.1-0.5-0.2-0.6-0.7-0.5c-1.9,0.5-3.8,0.5-5.8,0.1c-0.8-0.2-0.9,0-0.9,0.8
	c0,4.7,0,9.4,0,14.1c0,0.4-0.1,0.9-0.1,1.3c-0.1,0.4,0,0.8,0.4,1c0.3,0.2,0.6,0.4,0.9,0.5c1.3,0.5,2.6,0.6,3.9,0.4
	c0.5-0.1,1.1-0.3,1.6-0.5c0.8-0.4,1-0.8,0.9-1.7c-0.1-0.3-0.1-0.6-0.1-0.8C46.6,149.7,46.6,147.4,46.6,145z M128.5,131.8
	c-0.1,0-0.1,0.1-0.2,0.1c0,0.3-0.1,0.5,0,0.8c0.1,2.1,0.1,4.2,0.2,6.2c0,0.5,0.2,0.9,0.5,1.3c1.2,1.2,2.3,2.4,3.6,3.6
	c1.2,1.1,2.5,2,4,2.6c1.1,0.4,2,0.2,2.6-0.7c1-1.3,1.1-2.8,0.5-4.3s-1.6-2.7-2.8-3.8c-2-2-4.4-3.5-6.8-4.9
	C129.6,132.2,129,132.1,128.5,131.8z M52.4,123.1l0.1,0.1c0.6-0.1,1.2-0.2,1.7-0.3c1.3-0.3,2.7-0.8,4-1.1c3.3-0.9,6.7-1.8,10-2.7
	c0.4-0.1,0.9-0.3,1.3-0.4c0.3-0.1,0.5-0.3,0.5-0.6c0-0.7,0-1.5,0-2.2c0-0.4-0.2-0.6-0.7-0.5c-0.1,0-0.3,0.1-0.4,0.1
	c-2.1,0.9-4.1,1.9-6.2,2.8c-2.7,1.2-5.5,2.4-8.2,3.6C53.8,122.2,53.1,122.7,52.4,123.1z M32.8,122.9c-0.2-0.2-0.4-0.3-0.5-0.4
	c-0.6-0.3-1.3-0.5-1.9-0.8c-1.8-0.8-3.6-1.6-5.5-2.5c-1.8-0.8-3.6-1.6-5.4-2.4c-0.9-0.4-1.8-0.8-2.8-1.3c-0.7-0.3-1-0.1-1,0.7
	c0,0.5,0,1,0,1.5c0,0.9,0,0.9,0.8,1.1c1.4,0.4,2.8,0.8,4.2,1.1c1.7,0.5,3.4,0.9,5.1,1.4c1.8,0.5,3.6,1,5.5,1.5
	C31.7,123,32.2,123.1,32.8,122.9z M33.6,121.4c0-0.1,0.1-0.1,0.1-0.2c-0.1-0.1-0.2-0.2-0.3-0.3c-0.9-0.6-1.8-1.2-2.7-1.8
	c-3.2-2.2-6.4-4.4-9.7-6.6c-0.2-0.1-0.5-0.2-0.6-0.2c-0.1,0.1-0.2,0.4-0.2,0.6c0,0.5,0,1.1,0,1.6c0,0.6,0.2,0.9,0.7,1.1
	c1.6,0.7,3.3,1.5,4.9,2.3c2.4,1.1,4.8,2.3,7.1,3.4C33.1,121.4,33.4,121.4,33.6,121.4z M52,121.2c0,0.1,0.1,0.1,0.1,0.2
	c0.2,0,0.5-0.1,0.7-0.1c0.4-0.2,0.8-0.4,1.2-0.6c2.2-1,4.3-2.1,6.5-3.1c1.5-0.7,3-1.4,4.5-2.1c0.3-0.2,0.5-0.4,0.5-0.8
	c0-0.6,0-1.3,0-1.9c0-0.2-0.1-0.4-0.2-0.5s-0.4,0-0.5,0.1c-3.9,2.6-7.7,5.3-11.6,7.9C52.7,120.6,52.3,120.9,52,121.2z M42.8,131.2
	c1.2,0,2.3-0.1,3.3-0.7c0.6-0.4,0.8-0.7,0.6-1.4c0-0.2-0.1-0.4-0.1-0.7c-0.1-0.6-0.2-0.7-0.8-0.5c-1.9,0.7-3.7,0.7-5.6,0.1
	c-0.7-0.2-0.9-0.1-1,0.6c0,0.1,0,0.2,0,0.3c-0.2,1,0,1.2,0.8,1.7C40.9,131.1,41.8,131.1,42.8,131.2z M43.2,163.8
	c0.5-0.2,1.4-0.3,2.1-0.6s1.3-0.9,1.3-1.8c0-0.6-0.2-0.7-0.8-0.6c-0.5,0.1-1,0.3-1.5,0.3c-1.5,0.1-3,0.2-4.4-0.3
	c-0.6-0.2-1,0.1-0.7,0.8c0.2,0.4,0.4,0.9,0.7,1.2C40.8,163.5,41.9,163.6,43.2,163.8z M42.8,132.9L42.8,132.9c-0.2,0-0.4,0-0.6,0
	c-0.8,0-1.7,0-2.5,0c-0.2,0-0.5,0.2-0.6,0.3c-0.1,0.2,0.1,0.5,0.2,0.7c0.2,0.2,0.4,0.4,0.7,0.5c0.8,0.5,1.8,0.6,2.8,0.6
	c1.2,0,2.3,0,3.3-0.7c0.3-0.2,0.5-0.4,0.7-0.6c0.2-0.3,0.1-0.6-0.3-0.7c-0.2-0.1-0.4-0.1-0.6-0.1C44.8,132.9,43.8,132.9,42.8,132.9z
	 M42.8,159c0.4,0,0.9,0,1.3-0.1c0.8-0.2,1.7-0.3,2.3-1c0.2-0.2,0.3-0.5,0.3-0.7c0-0.3-0.4-0.3-0.7-0.3c-2.1,0-4.3,0-6.4,0
	c-0.2,0-0.5,0.1-0.5,0.3c-0.1,0.2,0,0.5,0.1,0.7c0.3,0.3,0.6,0.5,0.9,0.7C41,158.8,41.9,159,42.8,159z M30.7,162.4
	c0,0.1-0.1,0.2-0.1,0.2c0.8,1.1,2.1,1.7,3.2,2.6c0.2,0.2,0.5,0.2,0.8,0.3c0-0.9-0.1-1.7-0.3-2.4c-0.1-0.3-0.4-0.4-0.7-0.4
	c-0.5,0-1.1-0.1-1.6-0.2C31.5,162.6,31.1,162.5,30.7,162.4z"/>
<path class="st0" d="M37.4,164.2c0.3,0.2,0.4,0.2,0.5,0.3c1.8,1.8,4.1,2.2,6.5,1.8c1.5-0.2,2.9-0.8,3.8-2.1c0.6-0.9,1.3-1.1,2.3-1.2
	c2.5-0.1,5-0.5,7.4-1.1c1.9-0.4,3.9-0.8,5.8-1.3c2.1-0.6,4.2-1.2,6.3-1.9c0.7-0.2,0.8-0.2,1.3,0.4c0.2,0.3,0.6,0.6,0.9,0.7
	c0.4,0.2,0.8,0.1,1.1-0.2c0.3-0.3,0.4-0.7,0.2-1.1c-0.1-0.3-0.3-0.5-0.5-0.8c0.2-0.1,0.3-0.3,0.5-0.3c1.3-0.6,1.9-1.5,2.1-2.9
	c0.7-4.2,0.8-8.4,0.9-12.6c0.1-4.3,0.1-8.6,0-12.8c0-2.4-0.3-4.8-0.5-7.2c-0.1-0.6-0.3-1.3-0.4-1.9c-0.2-0.8-0.1-1,0.7-1.2
	c1.5-0.4,2.8-1.2,3.8-2.3c0.6-0.6,0.7-0.6,1.2,0c2.1,2.3,4.7,3,7.7,2.3c2.1-0.4,3.6-1.7,4.7-3.5c0.3-0.6,0.6-1.2,0.8-1.9
	c0.3-0.8-0.1-1.6-0.9-1.9c-0.6-0.3-1.3,0-1.7,0.7c-0.3,0.5-0.5,1.1-0.8,1.7c-1.2,1.7-2.8,2.5-4.9,2.2c-2-0.3-3.3-1.6-3.9-3.5
	c-0.1-0.4-0.2-0.8-0.2-1.2c-0.1-1-0.7-1.6-1.5-1.5c-0.8,0-1.4,0.6-1.4,1.6c-0.1,1.7-0.8,3-2.1,3.9c-1.1,0.8-2.4,1-3.7,0.8
	c-0.7-0.1-0.9-0.4-0.9-1.1c0-0.5,0-1.1,0-1.6c-0.1-1.3-1-1.9-2.1-1.3c-0.4,0.2-0.7,0.1-1.2-0.1c-1-0.5-1.4-1.2-1.2-2.4
	c0.1-0.6-0.2-1-0.7-1.3c-0.4-0.3-0.9-0.2-1.3,0.1c-0.7,0.5-1.5,1-2.2,1.5c-0.1,0.1-0.2,0.2-0.4,0.3c-0.2-0.2-0.3-0.4-0.5-0.6
	c-0.6-0.7-1.3-0.7-1.6,0.1c-0.5,1.1-1.4,1.8-2.1,2.6c-0.8,0.9-1.6,1.7-2.5,2.5c-0.8,0.7-1.7,1.2-2.5,1.8c-3.5,2.4-7.1,4.8-10.6,7.3
	c-0.7,0.5-0.8,0.5-1.4,0c-1.4-1-2.8-2-4.3-2.9c-0.4-0.3-0.7-0.7-0.6-1.2c0.3-2.9,0.6-5.9,1-8.8c0.2-1.7,0.4-3.5,0.7-5.2
	c0.5-2.9,1-5.8,1.5-8.7c0.4-2.1,0.8-4.1,1.3-6.2c0.4-1.8,0.9-3.5,1.4-5.3c0.4-1.5,0.8-3.1,1.3-4.6c0.4-1.3,0.8-2.5,1.2-3.8
	c0.6-1.7,1.2-3.4,1.9-5c0.6-1.5,1.2-2.9,1.9-4.3c1-2,2-3.9,3-5.8c1.4-2.6,3.1-5,5-7.3c0.2-0.2,0.4-0.3,0.6-0.5
	c0.5,0.4,0.6,0.9,0.8,1.4c1.3,3.3,2.3,6.7,2.9,10.2c0.2,1.1,0.4,2.2,0.5,3.3c0.2,1.3,0.8,1.8,2.1,1.6c2.6-0.3,5.3-0.7,7.9-0.9
	c2-0.2,4-0.2,6-0.3c5.3-0.1,10.6,0,15.9,0.7c1.2,0.1,2.3,0.4,3.5,0.5c1.4,0.2,2-0.3,2.2-1.7c0.3-2.6,0.8-5.1,1.5-7.5
	c0.4-1.4,0.8-2.9,1.3-4.3c0.3-1,0.8-2,1.3-3.1c0.3,0.3,0.6,0.4,0.8,0.6c2.3,2.9,4.4,5.9,6,9.3c1.2,2.5,2.4,5,3.5,7.5
	c0.7,1.6,1.3,3.3,1.9,5c0.7,1.9,1.3,3.8,1.9,5.8c0.5,1.6,0.9,3.1,1.3,4.7c0.5,1.8,0.9,3.6,1.3,5.4c0.2,1,0.5,1.9,0.6,2.9
	c0.6,3.5,1.3,7.1,1.8,10.7c0.8,4.6,1.2,9.3,1.7,14c1.1,11.3,1.2,22.7,0.8,34c-0.2,4.4-0.6,8.7-1.1,13.1c-0.4,3.4-1,6.7-1.6,10
	c-0.5,2.5-1.2,5-2.1,7.5c-0.5,1.4-1.1,2.7-2,3.9c-1.1,1.4-2.3,1.7-3.9,0.3c-1-0.9-1.6-2-2-3.2c-0.5-1.3-0.9-2.7-1.2-4
	c-0.5-1.8-0.8-2-2.6-1.9c-7.8,0.8-15.6,1.1-23.4,1.1c-6.5,0-13,0-19.4-0.2c-4.3-0.1-8.6-0.6-12.9-0.9c-1.9-0.1-2.1,0-2.6,1.8
	c-0.4,1.4-0.8,2.8-1.3,4.2c-0.5,1.3-1.1,2.5-2.2,3.3c-1.5,1.1-2.5,0.7-3.3-0.2s-1.4-2-1.9-3.2c-1.4-3.2-2.2-6.6-2.8-10.1
	c-0.6-3.3-1.1-6.7-1.5-10C37.4,164.9,37.4,164.6,37.4,164.2z M53.1,101.6L53.1,101.6c-0.6,0-1.2-0.1-1.8,0c-0.4,0-0.6,0.2-0.6,0.6
	c-0.1,0.4,0.2,0.6,0.5,0.7c0.2,0.1,0.5,0.1,0.7,0.1c1.9,0.1,3.8,0.2,5.7,0.3c0.4,0,0.8,0.1,1.2,0.2c1.3,0.5,2.6,0.8,4,0.9
	c2.3,0.2,4.5-0.2,6.5-1.3c3.7-1.9,6.1-4.8,7-8.9s0-7.8-2.6-11.1c-2-2.5-4.7-4.1-7.9-4.7c-3-0.5-5.9,0-8.5,1.4
	c-2.9,1.6-5,4.1-6.1,7.3c-0.9,2.6-0.9,5.2-0.2,7.7c0.7,2.5,1.9,4.6,3.9,6.3c0.1,0.1,0.2,0.3,0.3,0.5c-0.2,0.1-0.4,0.2-0.6,0.2
	C54.1,101.7,53.6,101.6,53.1,101.6z M110.2,133.2c-2.1,0.2-4.2,0.4-6.3,0.6c-0.8,0.1-1,0.3-1,1.1c0,0.5,0,1.1,0,1.6
	c0,0.9,0.3,1.2,1.2,1.4c0.3,0.1,0.6,0.1,0.9,0.1c1.7,0.1,3.4,0.2,5.1,0.2c0.7,0,1.1,0.2,1.4,0.8c0.1,0.4,0.4,0.6,0.8,0.6
	c0.4,0,0.8-0.2,0.9-0.6c0.1-0.8,0.7-0.9,1.3-0.9c0.3,0,0.5,0,0.8-0.1c0.5-0.1,1.1-0.2,1.6-0.3s0.7-0.5,0.7-1c0-0.6,0-1.2,0-1.8
	c0-0.9-0.2-1.1-1.1-1.2C114.3,133.5,112.3,133.4,110.2,133.2z M98.8,87.1c-1,0-2.3,0.3-3.5,1C93.7,89,92.6,90.2,92,92
	c-0.2,0.7,0,1.3,0.7,1.7c0.6,0.3,1.1,0.3,1.6-0.3c0.2-0.3,0.4-0.6,0.6-0.9c1.4-2.7,4.7-3.1,6.6-1.8c0.9,0.6,1.5,1.3,2,2.3
	c0.5,1.1,1.6,1.2,2.4,0.4c0.5-0.5,0.4-1.1,0.2-1.7C104.7,88.9,102.2,87.2,98.8,87.1z M80.9,102.7c0.5-0.2,0.9-0.4,1.3-0.6
	c1.3-0.8,2.6-1.6,3.8-2.5c0.7-0.5,0.6-1-0.2-1.4c-0.5-0.2-1.1-0.4-1.6-0.5c-2.2-0.3-4.3-0.3-6.5,0c-0.5,0.1-0.9,0.2-1.4,0.4
	c-1.2,0.4-1.3,0.9-0.3,1.7c1.1,0.8,2.2,1.5,3.3,2.2C79.8,102.2,80.4,102.5,80.9,102.7z M63.2,106.6c0-0.3,0-0.5-0.1-0.7
	c-0.1-0.5-0.4-0.7-0.8-0.8s-0.8,0-0.9,0.4c-0.3,0.7-0.7,0.9-1.4,0.8c-0.2,0-0.3,0.1-0.5,0.1c-2.2,0.6-4.3,1.1-6.4,1.7
	c-0.2,0.1-0.5,0.2-0.7,0.3c-0.3,0.1-0.4,0.4-0.4,0.7c0.1,0.3,0.3,0.5,0.6,0.5c0.3,0,0.6-0.1,0.9-0.1c1.3-0.3,2.5-0.6,3.8-1
	c1.2-0.3,2.3-0.7,3.5-1c0.3-0.1,0.6-0.1,0.9,0.1c0.5,0.3,0.9,0.3,1.2-0.2C63.1,107.1,63.1,106.7,63.2,106.6z M105.5,103.1
	L105.5,103.1c1.3-0.1,2.6-0.1,4-0.2c0.3,0,0.6-0.1,0.9-0.2c0.2-0.1,0.4-0.4,0.4-0.5c0-0.2-0.3-0.5-0.5-0.6s-0.4-0.1-0.7-0.1
	c-2.7,0.1-5.3,0.3-8,0.4c-0.2,0-0.4,0-0.6,0.1c-0.2,0.1-0.4,0.4-0.4,0.6c0,0.2,0.2,0.4,0.4,0.5s0.6,0.1,0.8,0.1
	C103.2,103.2,104.4,103.2,105.5,103.1z M101.3,106.2c-0.4,0-0.7,0.1-0.8,0.5s0.2,0.6,0.5,0.7c0.3,0.1,0.6,0.2,0.9,0.3
	c2.1,0.6,4.3,1.1,6.4,1.7c0.7,0.2,1.1,0.1,1.2-0.4c0.1-0.4-0.1-0.8-0.8-1c-0.5-0.2-1-0.2-1.6-0.4c-1.7-0.5-3.4-0.9-5.1-1.4
	C101.7,106.2,101.5,106.2,101.3,106.2z M99.4,109.6c-0.6,0-0.9,0.5-0.7,0.9c0.1,0.2,0.3,0.4,0.4,0.5c1.3,1.3,2.6,2.5,3.9,3.8
	c0.2,0.2,0.3,0.4,0.5,0.4c0.2,0.1,0.5,0.1,0.7,0s0.2-0.4,0.2-0.7c0-0.2-0.2-0.4-0.3-0.6c-0.3-0.3-0.6-0.6-0.9-0.9
	c-1.1-1-2.1-2-3.2-3C99.9,109.9,99.6,109.7,99.4,109.6z M107.6,152c-0.6,0-0.9,0.5-1.2,0.9c-0.4,0.5-0.3,0.9,0.2,1.3
	c0.5,0.4,0.8,0.4,1.3,0c0.3-0.3,0.5-0.6,0.7-0.9C108.7,152.7,108.2,152,107.6,152z M104.7,157.4c0.5,0,0.8-0.4,1.1-0.7
	c0.4-0.4,0.4-0.8,0.1-1.2c-0.3-0.4-0.8-0.5-1.3-0.2c-0.3,0.2-0.5,0.5-0.8,0.7c-0.2,0.3-0.3,0.6-0.1,0.9
	C103.9,157.2,104.2,157.5,104.7,157.4z M75.7,161.9c0.6,0,1-0.2,1.2-0.6c0.2-0.4,0-0.7-0.2-1c-0.2-0.2-0.5-0.4-0.8-0.5
	c-0.5-0.3-1-0.1-1.3,0.4c-0.3,0.4-0.2,0.9,0.3,1.3C75.1,161.6,75.5,161.8,75.7,161.9z M90.8,164.2c0.7,0,1.2-0.3,1.4-0.8
	c0.1-0.4,0-0.7-0.2-1c-0.3-0.4-1-0.4-1.6-0.2c-0.5,0.2-0.8,0.7-0.7,1.1C89.8,164,90.3,164.4,90.8,164.2z M103,158.7
	c0-0.6-0.5-1.1-1.1-1s-1,0.4-1.3,1c-0.2,0.5,0.1,1.2,0.7,1.3C102.1,160.1,103,159.4,103,158.7z M87,164.6c0.2,0,0.4-0.1,0.6-0.1
	c0.5-0.2,0.7-0.5,0.7-0.9s-0.4-0.8-0.9-0.9c-0.3,0-0.6,0-0.9,0c-0.5,0.1-0.8,0.4-0.8,0.9c0,0.4,0.2,0.7,0.7,0.9
	C86.6,164.6,86.8,164.6,87,164.6z M83.2,164.4c0.6-0.1,1-0.3,1.2-0.8c0.1-0.4-0.1-0.9-0.6-1.1c-0.4-0.2-0.9-0.2-1.3-0.2
	s-0.6,0.4-0.7,0.8c-0.1,0.4,0,0.7,0.3,0.9C82.5,164.1,82.9,164.2,83.2,164.4z M112.1,146.2c0-0.7-0.2-1.1-0.7-1.2
	c-0.4-0.1-0.9,0-1.1,0.4c-0.2,0.3-0.3,0.7-0.4,1.1c-0.1,0.5,0.3,0.8,0.7,1c0.4,0.1,0.7,0,0.9-0.4C111.8,146.8,112,146.4,112.1,146.2
	z M79.4,163.4c0.7,0,1-0.2,1.1-0.7c0.1-0.4-0.1-0.8-0.5-1.1c-0.2-0.1-0.5-0.2-0.7-0.3c-0.6-0.2-1,0.1-1.2,0.6s0,1.1,0.5,1.3
	C78.9,163.2,79.2,163.2,79.4,163.4z M99.7,160.7c0-0.1-0.1-0.3-0.2-0.5c-0.3-0.4-0.8-0.5-1.3-0.3c-0.7,0.3-1.1,0.7-1.1,1.2
	c0,0.1,0.1,0.3,0.1,0.4c0.3,0.5,0.7,0.7,1.1,0.5C99.2,161.7,99.7,161.4,99.7,160.7z M94.7,163.5c0.2-0.1,0.5-0.1,0.8-0.3
	c0.4-0.2,0.6-0.8,0.5-1.2c-0.2-0.4-0.7-0.7-1.2-0.6c-0.3,0.1-0.5,0.2-0.8,0.3c-0.4,0.2-0.6,0.7-0.5,1.1
	C93.7,163.2,94.1,163.5,94.7,163.5z M110.9,142.4c0,0.7,0.1,1,0.6,1.2c0.4,0.2,0.8,0.1,1.1-0.3c0.2-0.4,0.4-0.8,0.4-1.3
	s-0.4-0.9-0.9-0.9s-0.9,0.3-1,0.8C110.9,142.1,110.9,142.2,110.9,142.4z M110.5,149.7c0-0.8-0.7-1.2-1.3-0.9c-0.5,0.2-1,1.1-0.9,1.6
	c0.1,0.6,0.9,1,1.5,0.6C110.3,150.6,110.5,150.2,110.5,149.7z"/>
<path class="st0" d="M36.6,143.2c0,5.4,0,10.7,0,16.1c0,0.9-0.2,1.1-1.1,1.1c-1.2-0.1-2.4-0.1-3.6-0.4c-2.9-0.6-5.8-1.2-8.7-1.9
	c-1.6-0.4-3.2-0.8-4.7-1.3c-1.6-0.5-3.2-1.1-4.8-1.7c-0.6-0.2-1-0.7-1.1-1.4c-0.5-2.7-0.5-5.4-0.7-8.2c-0.4-7.7-0.4-15.3,0.3-23
	c0-0.4,0.1-0.7,0.1-1.1c0.1-0.6,0.4-0.8,1-0.7c1.2,0.3,2.4,0.5,3.5,0.8c2.1,0.5,4.2,1,6.3,1.4c2,0.5,3.9,0.9,5.9,1.4
	c2,0.4,4,0.9,5.9,1.3c0.3,0.1,0.6,0.1,0.8,0.2c0.5,0.2,0.7,0.4,0.7,1c0,0.3,0,0.6,0,0.9C36.6,132.9,36.6,138.1,36.6,143.2
	L36.6,143.2z"/>
<path class="st0" d="M42.8,15.5c0-1,0.3-1.6,0.8-2.2c0.9-1.1,2-1.9,3.2-2.6c2.2-1.2,4.6-2.1,7-2.8c0.9-0.3,1.8-0.5,2.7-0.8
	c0.6-0.2,0.8-0.1,0.9,0.6c0.3,1.6,0.6,3.3,0.9,4.9c0.5,3.1,1,6.1,1.5,9.2c0.4,2.6,0.8,5.2,1.3,7.8c0.4,2.7,0.9,5.3,1.4,8
	c0.2,1.2,0.4,2.5,0.6,3.7c0.4,2.7,0.9,5.4,1.3,8.1c0.3,1.8,0.6,3.6,0.9,5.3c0,0.2,0.1,0.3,0.1,0.5c0,0.4-0.1,0.6-0.5,0.7
	C64.2,56,63.4,56,62.7,56c-0.4,0-0.5-0.2-0.7-0.5c-0.3-0.8-0.6-1.6-1-2.3c-0.5-0.9-1-1.8-1.5-2.6c-0.7-1-1.6-1.1-2.4-0.1
	c-1.4,1.6-2.7,3.3-4,5c-0.3,0.4-0.6,0.9-0.9,1.3c-0.2,0.2-0.5,0.4-0.7,0.4c-0.4,0-0.4-0.4-0.5-0.7c-0.2-0.9-0.3-1.7-0.5-2.6
	c-0.6-3.1-1.2-6.2-1.8-9.4c-0.6-3.1-1.3-6.2-1.9-9.3c-0.4-2.2-0.8-4.4-1.3-6.6c-0.4-2.2-0.9-4.4-1.4-6.6c-0.3-1.2-0.5-2.5-0.7-3.7
	c-0.2-0.8-0.3-1.6-0.5-2.4C42.8,15.8,42.8,15.6,42.8,15.5z"/>
<path class="st0" d="M49.2,143.2c0-5.4,0-10.9,0-16.3c0-0.8,0.1-0.9,0.9-1.1c1.9-0.4,3.9-0.8,5.8-1.3c2.7-0.6,5.4-1.3,8.1-1.9
	c1.8-0.4,3.6-0.8,5.3-1.2c0.9-0.2,1.9-0.4,2.8-0.6c0.8-0.2,1.1,0,1.1,0.8c0.2,3,0.5,6,0.6,8.9c0.1,4.3,0,8.7-0.1,13
	c-0.1,2.8-0.3,5.7-0.5,8.5c0,0.7-0.2,1.3-0.3,2c-0.1,0.4-0.2,0.6-0.6,0.8c-0.5,0.3-1,0.6-1.6,0.7c-1.9,0.6-3.9,1.3-5.8,1.8
	c-1.7,0.5-3.4,0.9-5.1,1.3c-3.1,0.7-6.2,1.3-9.4,1.6c-0.2,0-0.3,0-0.5,0c-0.5,0-0.6-0.2-0.7-0.7c0-0.4,0-0.7,0-1.1
	C49.3,153.4,49.3,148.2,49.2,143.2L49.2,143.2z M71.6,130.7c-0.1-1.3-0.2-2.6-0.4-4c-0.2-1.4-1.1-2.1-2.5-1.9
	c-1.8,0.3-3.5,0.6-5.2,1c-1.8,0.4-3.5,0.9-5.3,1.4c-1.5,0.4-2.9,1-4.3,1.5c-0.9,0.3-1.4,1-1.5,2c-0.1,0.7-0.2,1.4-0.3,2.2
	c-0.2,2.2-0.2,4.4,0.3,6.6c0.3,1.2,0.9,1.8,2.2,1.7c0.6,0,1.1-0.1,1.7-0.2c1.2-0.2,2.3-0.5,3.5-0.8c3.2-0.7,6.4-1.6,9.5-2.7
	c1.2-0.4,1.9-1.2,2-2.5C71.4,133.6,71.5,132.2,71.6,130.7z M55.2,154.4L55.2,154.4c0,0.4,0,0.7,0,1.1c0.1,1.2,1,1.9,2.2,1.7
	c2.2-0.5,4.3-1,6.5-1.6c1-0.3,2.1-0.6,3.1-0.9c0.6-0.2,1-0.5,1.2-1.1c0.3-1.1,0.4-2.3,0.1-3.4c-0.3-1-1-1.4-2-1.2s-2.1,0.5-3.1,0.7
	c-2.1,0.6-4.3,1.1-6.4,1.7c-0.9,0.2-1.4,0.9-1.5,1.8C55.2,153.6,55.2,154,55.2,154.4z"/>
<path class="st0" d="M71.3,30.3c0.2,7.9,0.4,15.8,0.6,23.7c0,1.3,0,1.3-1.3,1.3c-0.3,0-0.6,0-0.9,0c-0.8,0-0.9-0.1-1.1-0.9
	c-0.2-1.3-0.4-2.6-0.6-3.9c-0.4-3.2-0.8-6.4-1.3-9.6c-0.4-3.1-0.9-6.2-1.3-9.3c-0.2-1.7-0.5-3.4-0.7-5.1c-0.3-2.2-0.6-4.3-0.9-6.5
	c-0.2-1.3-0.3-2.5-0.5-3.8c-0.4-3-0.8-5.9-1.2-8.9c-0.1-1-0.1-1,0.9-1.1c2.1-0.3,4.2-0.6,6.3-0.9c0.2,0,0.4-0.1,0.6-0.1
	c0.6,0,0.7,0.1,0.7,0.7c0,0.7,0,1.4,0.1,2C70.9,15.5,71.1,22.9,71.3,30.3L71.3,30.3z"/>
<path class="st0" d="M5.7,140.1c1,0,1.9,0.3,2.8,0.8c0.5,0.3,0.7,0.7,0.7,1.3c0.1,2.8,0.2,5.6,0.4,8.4c0.1,1.4,0.3,2.8,0.5,4.2
	c0.2,1.2,0.8,2,1.9,2.5c0.9,0.4,1.8,0.8,2.8,1.2c3.1,1.1,6.3,1.9,9.5,2.7c0.4,0.1,0.7,0.4,1,0.7c1.6,1.4,3.1,3,4.7,4.3
	c1.3,1.1,2.8,2,4.3,3c0.5,0.3,0.8,0.7,0.9,1.3c0.1,0.9,0.3,1.9,0.4,2.8c0,0.2,0.1,0.4,0.1,0.6c0,0.4-0.2,0.6-0.6,0.5
	c-1.4-0.3-2.8-0.6-4.1-1c-1.8-0.6-3.6-1.2-5.3-1.9c-3.4-1.3-6.5-3.1-9.4-5.2c-3.6-2.6-6.7-5.7-9.3-9.4c-1.8-2.6-3.1-5.3-3.9-8.4
	c-0.5-2-0.8-4-0.2-6c0.2-0.5,0.4-1.1,0.7-1.5C4.2,140.2,4.9,140,5.7,140.1z"/>
<path class="st0" d="M46.6,145c0,2.3,0,4.7,0,7c0,0.3,0,0.6,0.1,0.8c0.2,0.9,0,1.4-0.9,1.7c-0.5,0.2-1.1,0.4-1.6,0.5
	c-1.3,0.2-2.6,0.2-3.9-0.4c-0.3-0.1-0.6-0.3-0.9-0.5c-0.4-0.3-0.4-0.6-0.4-1c0.1-0.4,0.1-0.9,0.1-1.3c0-4.7,0-9.4,0-14.1
	c0-0.8,0.2-1,0.9-0.8c1.9,0.5,3.8,0.5,5.8-0.1c0.5-0.1,0.7,0,0.7,0.5c0,0.1,0,0.3,0,0.4C46.6,140.2,46.6,142.6,46.6,145L46.6,145z"
	/>
<path class="st0" d="M128.5,131.8c0.5,0.3,1.1,0.6,1.6,0.9c2.4,1.4,4.8,3,6.8,4.9c1.1,1.1,2.2,2.3,2.8,3.8s0.5,3-0.5,4.3
	c-0.7,0.9-1.5,1.1-2.6,0.7c-1.5-0.6-2.8-1.5-4-2.6s-2.4-2.4-3.6-3.6c-0.4-0.4-0.5-0.8-0.5-1.3c0-2.1-0.1-4.2-0.2-6.2
	c0-0.3,0-0.5,0-0.8C128.4,131.8,128.4,131.8,128.5,131.8z"/>
<path class="st0" d="M52.4,123.1c0.7-0.4,1.5-0.8,2.2-1.1c2.7-1.2,5.4-2.4,8.2-3.6c2.1-0.9,4.1-1.9,6.2-2.8c0.1-0.1,0.3-0.1,0.4-0.1
	c0.4-0.1,0.7,0,0.7,0.5c0,0.7,0,1.5,0,2.2c0,0.3-0.2,0.5-0.5,0.6c-0.4,0.1-0.9,0.3-1.3,0.4c-3.3,0.9-6.7,1.8-10,2.7
	c-1.3,0.4-2.7,0.8-4,1.1c-0.6,0.1-1.2,0.2-1.7,0.3C52.4,123.2,52.4,123.1,52.4,123.1z"/>
<path class="st0" d="M32.8,122.9c-0.6,0.3-1,0.1-1.5,0c-1.8-0.5-3.6-1-5.5-1.5c-1.7-0.5-3.4-0.9-5.1-1.4c-1.4-0.4-2.8-0.7-4.2-1.1
	c-0.8-0.2-0.8-0.3-0.8-1.1c0-0.5,0-1,0-1.5c0-0.8,0.3-1,1-0.7c0.9,0.4,1.8,0.8,2.8,1.3c1.8,0.8,3.6,1.6,5.4,2.4
	c1.8,0.8,3.6,1.6,5.5,2.5c0.6,0.3,1.3,0.5,1.9,0.8C32.4,122.6,32.5,122.7,32.8,122.9z"/>
<path class="st0" d="M33.6,121.4c-0.2,0-0.5-0.1-0.7-0.2c-2.4-1.1-4.8-2.3-7.1-3.4c-1.6-0.8-3.2-1.6-4.9-2.3
	c-0.5-0.2-0.7-0.5-0.7-1.1c0-0.5,0-1.1,0-1.6c0-0.2,0.1-0.5,0.2-0.6s0.4,0.1,0.6,0.2c3.2,2.2,6.4,4.4,9.7,6.6
	c0.9,0.6,1.8,1.2,2.7,1.8c0.1,0.1,0.2,0.2,0.3,0.3C33.6,121.2,33.6,121.4,33.6,121.4z"/>
<path class="st0" d="M52,121.2c0.4-0.3,0.8-0.6,1.2-0.9c3.8-2.6,7.7-5.3,11.6-7.9c0.1-0.1,0.4-0.2,0.5-0.1c0.1,0.1,0.2,0.3,0.2,0.5
	c0,0.6,0,1.3,0,1.9c0,0.4-0.2,0.6-0.5,0.8c-1.5,0.7-3,1.4-4.5,2.1c-2.2,1-4.3,2.1-6.5,3.1c-0.4,0.2-0.8,0.4-1.2,0.6
	c-0.2,0.1-0.4,0.1-0.7,0.1C52,121.4,52,121.2,52,121.2z"/>
<path class="st0" d="M42.8,131.2c-0.9-0.1-1.9-0.1-2.8-0.6s-1-0.7-0.8-1.7c0-0.1,0-0.2,0-0.3c0.1-0.7,0.3-0.8,1-0.6
	c1.9,0.6,3.8,0.6,5.6-0.1c0.6-0.2,0.7-0.1,0.8,0.5c0,0.2,0.1,0.4,0.1,0.7c0.1,0.7,0,1-0.6,1.4C45.1,131.1,44,131.2,42.8,131.2z"/>
<path class="st0" d="M43.2,163.8c-1.3-0.1-2.4-0.3-3.2-1.1c-0.3-0.3-0.6-0.8-0.7-1.2c-0.2-0.6,0.1-1,0.7-0.8
	c1.4,0.5,2.9,0.5,4.4,0.3c0.5,0,1-0.2,1.5-0.3c0.6-0.2,0.8,0,0.8,0.6c0,0.9-0.6,1.5-1.3,1.8C44.5,163.5,43.7,163.6,43.2,163.8z"/>
<path class="st0" d="M42.8,132.9c1,0,2,0,3,0c0.2,0,0.4,0,0.6,0.1c0.4,0.1,0.5,0.4,0.3,0.7c-0.2,0.2-0.4,0.5-0.7,0.6
	c-1,0.6-2.2,0.7-3.3,0.7c-1,0-1.9-0.1-2.8-0.6c-0.2-0.1-0.5-0.3-0.7-0.5c-0.1-0.2-0.3-0.5-0.2-0.7c0.1-0.2,0.4-0.3,0.6-0.3
	c0.8,0,1.7,0,2.5,0C42.4,132.9,42.6,132.9,42.8,132.9L42.8,132.9z"/>
<path class="st0" d="M42.8,159c-0.9,0-1.8-0.2-2.6-0.5c-0.4-0.1-0.7-0.4-0.9-0.7c-0.1-0.1-0.2-0.5-0.1-0.7c0-0.1,0.4-0.3,0.5-0.3
	c2.1,0,4.3,0,6.4,0c0.3,0,0.6,0,0.7,0.3c0,0.2-0.1,0.5-0.3,0.7c-0.6,0.7-1.5,0.8-2.3,1C43.7,158.9,43.3,158.9,42.8,159z"/>
<path class="st0" d="M30.7,162.4c0.4,0.1,0.9,0.2,1.3,0.2c0.5,0.1,1.1,0.1,1.6,0.2c0.3,0,0.6,0.1,0.7,0.4c0.2,0.7,0.3,1.5,0.3,2.4
	c-0.4-0.1-0.7-0.2-0.8-0.3c-1-0.9-2.3-1.5-3.2-2.6C30.6,162.6,30.6,162.5,30.7,162.4z"/>
<path d="M53.1,101.6c0.5,0,1,0.1,1.5,0.1c0.2,0,0.4-0.1,0.6-0.2c-0.1-0.2-0.1-0.4-0.3-0.5c-2-1.7-3.3-3.8-3.9-6.3
	c-0.7-2.6-0.6-5.2,0.2-7.7c1.1-3.2,3.1-5.7,6.1-7.3c2.6-1.5,5.5-2,8.5-1.4c3.2,0.6,5.9,2.1,7.9,4.7c2.6,3.3,3.5,7,2.6,11.1
	s-3.3,7-7,8.9c-2,1-4.2,1.4-6.5,1.3c-1.4-0.1-2.7-0.4-4-0.9c-0.4-0.1-0.8-0.2-1.2-0.2c-1.9-0.1-3.8-0.2-5.7-0.3
	c-0.3,0-0.5,0-0.7-0.1c-0.3-0.1-0.5-0.3-0.5-0.7c0.1-0.3,0.3-0.6,0.6-0.6C51.9,101.5,52.5,101.5,53.1,101.6L53.1,101.6z M63.5,101
	c5.3,0,9.7-4.3,9.8-9.7c0-5.4-4.3-9.9-9.8-9.9c-5.3,0-9.7,4.2-9.7,9.8C53.8,96.8,58.3,101,63.5,101z"/>
<path d="M110.2,133.2c2.1,0.2,4.1,0.4,6.2,0.6c1,0.1,1.1,0.3,1.1,1.2c0,0.6,0,1.2,0,1.8c0,0.5-0.2,0.9-0.7,1s-1,0.2-1.6,0.3
	c-0.2,0-0.5,0.1-0.8,0.1c-0.7,0-1.2,0.1-1.3,0.9c-0.1,0.4-0.4,0.6-0.9,0.6c-0.4,0-0.7-0.2-0.8-0.6c-0.2-0.7-0.7-0.8-1.4-0.8
	c-1.7,0-3.4-0.1-5.1-0.2c-0.3,0-0.6-0.1-0.9-0.1c-0.9-0.2-1.1-0.5-1.2-1.4c0-0.5,0-1.1,0-1.6c0-0.8,0.2-1,1-1.1
	C106,133.5,108.1,133.4,110.2,133.2z"/>
<path d="M98.8,87.1c3.4,0.1,6,1.8,7.3,4.6c0.3,0.6,0.3,1.2-0.2,1.7c-0.8,0.9-1.9,0.7-2.4-0.4c-0.5-0.9-1.1-1.7-2-2.3
	c-1.9-1.2-5.2-0.9-6.6,1.8c-0.2,0.3-0.4,0.6-0.6,0.9c-0.5,0.5-1,0.6-1.6,0.3C92,93.2,91.8,92.6,92,92c0.6-1.7,1.8-3,3.3-3.9
	C96.5,87.5,97.7,87.1,98.8,87.1z"/>
<path d="M80.9,102.7c-0.6-0.3-1.1-0.4-1.6-0.7c-1.1-0.7-2.2-1.4-3.3-2.2c-1-0.7-0.9-1.2,0.3-1.7c0.4-0.2,0.9-0.3,1.4-0.4
	c2.2-0.3,4.3-0.3,6.5,0c0.6,0.1,1.1,0.2,1.6,0.5c0.8,0.3,0.9,0.8,0.2,1.4c-1.2,0.9-2.5,1.7-3.8,2.5
	C81.8,102.4,81.4,102.5,80.9,102.7z"/>
<path d="M63.2,106.6c-0.1,0.2-0.1,0.5-0.3,0.7c-0.3,0.5-0.8,0.5-1.2,0.2c-0.3-0.2-0.6-0.2-0.9-0.1c-1.2,0.4-2.3,0.7-3.5,1
	s-2.5,0.7-3.8,1c-0.3,0.1-0.6,0.1-0.9,0.1s-0.5-0.2-0.6-0.5s0.1-0.5,0.4-0.7c0.2-0.1,0.5-0.2,0.7-0.3c2.1-0.6,4.3-1.1,6.4-1.7
	c0.2,0,0.3-0.1,0.5-0.1c0.7,0.1,1.1-0.1,1.4-0.8c0.1-0.3,0.6-0.5,0.9-0.4c0.4,0.1,0.7,0.3,0.8,0.8C63.1,106.1,63.1,106.2,63.2,106.6
	z"/>
<path d="M105.5,103.1c-1.2,0-2.4,0.1-3.5,0.1c-0.3,0-0.6,0-0.8-0.1s-0.4-0.3-0.4-0.5s0.2-0.4,0.4-0.6c0.1-0.1,0.4-0.1,0.6-0.1
	c2.7-0.1,5.3-0.3,8-0.4c0.2,0,0.5,0,0.7,0.1s0.5,0.4,0.5,0.6c0,0.2-0.2,0.4-0.4,0.5c-0.3,0.1-0.6,0.2-0.9,0.2
	C108.2,103,106.9,103.1,105.5,103.1L105.5,103.1z"/>
<path d="M101.3,106.2c0.2,0,0.4,0.1,0.6,0.1c1.7,0.5,3.4,0.9,5.1,1.4c0.5,0.1,1,0.2,1.6,0.4c0.7,0.2,1,0.5,0.8,1
	c-0.1,0.4-0.5,0.6-1.2,0.4c-2.1-0.6-4.3-1.1-6.4-1.7c-0.3-0.1-0.6-0.2-0.9-0.3c-0.3-0.1-0.5-0.3-0.5-0.7
	C100.6,106.4,100.9,106.2,101.3,106.2z"/>
<path d="M99.4,109.6c0.2,0.1,0.5,0.3,0.7,0.5c1.1,1,2.1,2,3.2,3c0.3,0.3,0.6,0.6,0.9,0.9c0.1,0.2,0.3,0.4,0.3,0.6
	c0,0.2-0.1,0.5-0.2,0.7c-0.2,0.1-0.5,0.1-0.7,0s-0.4-0.3-0.5-0.4c-1.3-1.3-2.6-2.5-3.9-3.8c-0.2-0.2-0.3-0.3-0.4-0.5
	C98.5,110.1,98.8,109.7,99.4,109.6z"/>
<path d="M107.6,152c0.6,0,1.1,0.7,0.9,1.2c-0.1,0.3-0.4,0.7-0.7,0.9c-0.5,0.4-0.8,0.4-1.3,0s-0.5-0.8-0.2-1.3
	C106.7,152.5,107,152,107.6,152z"/>
<path d="M104.7,157.4c-0.4,0-0.7-0.2-0.9-0.5s-0.2-0.7,0.1-0.9c0.2-0.3,0.5-0.6,0.8-0.7c0.4-0.3,1-0.1,1.3,0.2
	c0.3,0.4,0.3,0.8-0.1,1.2S105.2,157.4,104.7,157.4z"/>
<path d="M75.7,161.9c-0.2-0.1-0.6-0.2-0.9-0.5c-0.5-0.3-0.5-0.9-0.3-1.3c0.3-0.5,0.8-0.6,1.3-0.4c0.3,0.1,0.5,0.3,0.8,0.5
	c0.3,0.3,0.4,0.6,0.2,1C76.7,161.7,76.3,161.9,75.7,161.9z"/>
<path d="M90.8,164.2c-0.6,0-1-0.3-1.1-0.8c-0.1-0.4,0.2-0.9,0.7-1.1c0.6-0.3,1.2-0.2,1.6,0.2c0.3,0.3,0.4,0.6,0.2,1
	C92,164.1,91.5,164.2,90.8,164.2z"/>
<path d="M103,158.7c0,0.7-1,1.4-1.7,1.3c-0.6-0.1-0.9-0.8-0.7-1.3c0.2-0.6,0.7-0.9,1.3-1C102.6,157.6,103.1,158.1,103,158.7z"/>
<path d="M87,164.6c-0.2,0-0.4-0.1-0.6-0.1c-0.5-0.2-0.7-0.5-0.7-0.9c0-0.5,0.3-0.8,0.8-0.9c0.3-0.1,0.6-0.1,0.9,0
	c0.5,0.1,0.8,0.4,0.9,0.9c0,0.4-0.2,0.8-0.7,0.9C87.5,164.6,87.3,164.6,87,164.6z"/>
<path d="M83.2,164.4c-0.3-0.1-0.7-0.2-1-0.4s-0.4-0.5-0.3-0.9s0.3-0.7,0.7-0.8c0.4,0,0.9,0,1.3,0.2c0.5,0.2,0.7,0.7,0.6,1.1
	C84.2,164.1,83.8,164.2,83.2,164.4z"/>
<path d="M112.1,146.2c-0.1,0.2-0.2,0.6-0.5,0.9c-0.2,0.3-0.5,0.5-0.9,0.4c-0.5-0.2-0.8-0.5-0.7-1c0.1-0.4,0.2-0.8,0.4-1.1
	c0.2-0.4,0.7-0.5,1.1-0.4C111.8,145.1,112.1,145.5,112.1,146.2z"/>
<path d="M79.4,163.4c-0.2,0-0.5-0.1-0.8-0.2c-0.5-0.2-0.7-0.8-0.5-1.3s0.7-0.7,1.2-0.6c0.2,0.1,0.5,0.2,0.7,0.3
	c0.4,0.2,0.6,0.6,0.5,1.1C80.4,163.1,80.1,163.4,79.4,163.4z"/>
<path d="M99.7,160.7c-0.1,0.7-0.5,1-1.3,1.3c-0.4,0.2-0.8-0.1-1.1-0.5c-0.1-0.1-0.1-0.3-0.1-0.4c0-0.4,0.4-0.9,1.1-1.2
	c0.5-0.2,1-0.1,1.3,0.3C99.7,160.4,99.7,160.6,99.7,160.7z"/>
<path d="M94.7,163.5c-0.6,0-1-0.3-1.1-0.7s0.1-0.8,0.5-1.1c0.2-0.1,0.5-0.2,0.8-0.3c0.5-0.1,1,0.2,1.2,0.6c0.2,0.4,0,1-0.5,1.2
	C95.3,163.2,94.9,163.4,94.7,163.5z"/>
<path d="M110.9,142.4c0-0.1,0-0.3,0.1-0.5c0.1-0.5,0.6-0.8,1-0.8c0.5,0,0.9,0.5,0.9,0.9s-0.2,0.9-0.4,1.3c-0.2,0.4-0.7,0.4-1.1,0.3
	C111,143.4,110.9,143.1,110.9,142.4z"/>
<path d="M110.5,149.7c0,0.5-0.3,1-0.7,1.3c-0.5,0.4-1.3,0-1.5-0.6c-0.1-0.5,0.4-1.4,0.9-1.6C109.9,148.4,110.5,148.9,110.5,149.7z"
	/>
<path d="M71.6,130.7c-0.1,1.5-0.2,2.9-0.4,4.3c-0.1,1.3-0.8,2.1-2,2.5c-3.1,1.1-6.3,2-9.5,2.7c-1.2,0.3-2.3,0.5-3.5,0.8
	c-0.5,0.1-1.1,0.2-1.7,0.2c-1.3,0-1.9-0.5-2.2-1.7c-0.5-2.2-0.4-4.4-0.3-6.6c0.1-0.7,0.2-1.5,0.3-2.2c0.1-0.9,0.6-1.6,1.5-2
	c1.4-0.5,2.9-1,4.3-1.5c1.8-0.5,3.5-1,5.3-1.4c1.7-0.4,3.5-0.7,5.2-1c1.4-0.2,2.3,0.5,2.5,1.9C71.4,128.1,71.5,129.5,71.6,130.7z
	 M54.6,135.2L54.6,135.2c0.1,0.8,0.1,1.6,0.1,2.4c0,0.8,0.3,1,1.1,0.9c0.9-0.2,1.9-0.4,2.8-0.6c3-0.8,6-1.7,9-2.5
	c0.7-0.2,1.1-0.6,1.1-1.3c0.1-1.5,0.2-2.9,0.2-4.4c0-0.4,0-0.9-0.1-1.3c-0.1-0.6-0.3-0.7-0.9-0.6c-0.7,0.1-1.3,0.2-2,0.4
	c-1.8,0.4-3.7,0.9-5.5,1.4c-1.6,0.4-3.1,1-4.7,1.4c-0.6,0.2-0.9,0.6-0.9,1.2C54.8,133.1,54.7,134.2,54.6,135.2z"/>
<path d="M55.2,154.4c0-0.4,0-0.8,0-1.2c0.1-0.9,0.6-1.5,1.5-1.8c2.1-0.6,4.3-1.2,6.4-1.7c1-0.3,2.1-0.5,3.1-0.7s1.7,0.1,2,1.2
	c0.3,1.1,0.3,2.3-0.1,3.4c-0.2,0.6-0.6,0.9-1.2,1.1c-1,0.3-2,0.6-3.1,0.9c-2.2,0.6-4.3,1.1-6.5,1.6c-1.2,0.3-2.1-0.4-2.2-1.7
	C55.2,155.2,55.2,154.8,55.2,154.4L55.2,154.4z M65.7,152.2c-0.4-0.4-0.7-0.4-1-0.3c-0.4,0.1-0.9,0.3-1.3,0.4
	c-1.6,0.4-3.3,0.8-4.9,1.2c-0.2,0.1-0.4,0.1-0.4,0.5c0.1,0,0.3,0.1,0.4,0.1c2.3-0.6,4.6-1.2,6.8-1.8
	C65.4,152.4,65.5,152.4,65.7,152.2z"/>
<path class="st0" d="M63.5,101c-5.2,0-9.7-4.2-9.7-9.9c0-5.5,4.5-9.7,9.7-9.8c5.5,0,9.8,4.4,9.8,9.9C73.2,96.7,68.8,101,63.5,101z
	 M64.1,87.1c-3.6,0-6.4,1.9-7.6,4.8c-0.3,0.7,0,1.4,0.6,1.8s1.2,0.3,1.7-0.3c0.3-0.3,0.5-0.6,0.6-1c1.7-3.1,6.2-3.2,8.1-0.2
	c0.2,0.3,0.3,0.6,0.5,1c0.4,0.7,1.2,0.9,1.7,0.6c0.7-0.4,1.2-1,0.7-2.1C69.1,88.8,66.8,87.3,64.1,87.1z"/>
<path class="st0" d="M54.6,135.2c0.1-1.1,0.2-2.1,0.3-3.2c0.1-0.6,0.3-1,0.9-1.2c1.6-0.5,3.1-1,4.7-1.4c1.8-0.5,3.6-0.9,5.5-1.4
	c0.7-0.2,1.3-0.3,2-0.4c0.6-0.1,0.8,0.1,0.9,0.6c0.1,0.4,0.1,0.9,0.1,1.3c-0.1,1.5-0.2,2.9-0.2,4.4c0,0.7-0.4,1.1-1.1,1.3
	c-3,0.8-6,1.7-9,2.5c-0.9,0.3-1.9,0.4-2.8,0.6c-0.8,0.2-1,0-1.1-0.9c0-0.8,0-1.6,0-2.4C54.7,135.2,54.6,135.2,54.6,135.2z"/>
<path class="st0" d="M65.7,152.2c-0.2,0.1-0.3,0.1-0.4,0.1c-2.3,0.6-4.5,1.2-6.8,1.8c-0.1,0-0.2,0-0.4-0.1c-0.1-0.4,0.2-0.4,0.4-0.5
	c1.6-0.4,3.3-0.8,4.9-1.2c0.4-0.1,0.9-0.3,1.3-0.4C64.9,152,65.3,151.9,65.7,152.2z"/>
<path d="M64.1,87.1c2.7,0.2,5.1,1.7,6.5,4.6c0.5,1,0,1.6-0.7,2.1c-0.6,0.3-1.3,0-1.7-0.6c-0.2-0.3-0.3-0.6-0.5-1
	c-1.9-3-6.4-2.8-8.1,0.2c-0.2,0.3-0.4,0.7-0.6,1c-0.5,0.6-1.1,0.6-1.7,0.3c-0.7-0.4-0.9-1.1-0.6-1.8C57.6,89,60.5,87.1,64.1,87.1z"
	/>
</svg>
